HIERARCHY
ROOT Hips
{
	OFFSET 0.0000 0.0000 0.0000
	CHANNELS 6 Xposition Yposition Zposition Zrotation Xrotation Yrotation
	JOINT Ab
	{
		OFFSET -0.0000 8.0846 -0.0000
		CHANNELS 3 Zrotation Xrotation Yrotation
		JOINT Chest
		{
			OFFSET -0.0000 25.0068 -0.0000
			CHANNELS 3 Zrotation Xrotation Yrotation
			JOINT Neck
			{
				OFFSET -0.0000 25.0068 0.0000
				CHANNELS 3 Zrotation Xrotation Yrotation
				JOINT Head
				{
					OFFSET -0.0000 10.7556 0.0000
					CHANNELS 3 Zrotation Xrotation Yrotation
					End Site
					{
						OFFSET -0.0000 16.6222 0.0000
					}
				}
			}
			JOINT LeftCollar
			{
				OFFSET -0.0000 25.0068 0.0000
				CHANNELS 3 Zrotation Xrotation Yrotation
				JOINT LeftShoulder
				{
					OFFSET 19.5556 -0.0000 0.0000
					CHANNELS 3 Zrotation Xrotation Yrotation
					JOINT LeftElbow
					{
						OFFSET 27.1828 0.0000 0.0000
						CHANNELS 3 Zrotation Xrotation Yrotation
						JOINT LeftWrist
						{
							OFFSET 23.3157 0.0000 0.0000
							CHANNELS 3 Zrotation Xrotation Yrotation
							End Site
							{
								OFFSET 0.0000 -14.6667 0.0000
							}
						}
					}
				}
			}
			JOINT RightCollar
			{
				OFFSET -0.0000 25.0068 0.0000
				CHANNELS 3 Zrotation Xrotation Yrotation
				JOINT RightShoulder
				{
					OFFSET -19.5556 0.0000 0.0000
					CHANNELS 3 Zrotation Xrotation Yrotation
					JOINT RightElbow
					{
						OFFSET -27.1828 0.0000 0.0000
						CHANNELS 3 Zrotation Xrotation Yrotation
						JOINT RightWrist
						{
							OFFSET -23.3157 0.0000 0.0000
							CHANNELS 3 Zrotation Xrotation Yrotation
							End Site
							{
								OFFSET -0.0000 -14.6667 0.0000
							}
						}
					}
				}
			}
		}
	}
	JOINT LeftHip
	{
		OFFSET 11.7333 0.0000 0.0000
		CHANNELS 3 Zrotation Xrotation Yrotation
		JOINT LeftKnee
		{
			OFFSET -0.0000 -40.8688 0.0000
			CHANNELS 3 Zrotation Xrotation Yrotation
			JOINT LeftAnkle
			{
				OFFSET -0.0000 -44.4337 0.0000
				CHANNELS 3 Zrotation Xrotation Yrotation
				End Site
				{
					OFFSET -0.0000 -4.8889 16.6222
				}
			}
		}
	}
	JOINT RightHip
	{
		OFFSET -11.7333 0.0000 0.0000
		CHANNELS 3 Zrotation Xrotation Yrotation
		JOINT RightKnee
		{
			OFFSET -0.0000 -40.8688 0.0000
			CHANNELS 3 Zrotation Xrotation Yrotation
			JOINT RightAnkle
			{
				OFFSET -0.0000 -44.4337 0.0000
				CHANNELS 3 Zrotation Xrotation Yrotation
				End Site
				{
					OFFSET -0.0000 -4.8889 16.6222
				}
			}
		}
	}
}
MOTION
Frames: 24
Frame Time: 0.010000
-7.4725 87.4269 75.8283 3.2719 0.6391 176.5879 358.2956 3.0831 356.4129 3.7146 11.1099 356.0050 6.8904 339.7892 3.8545 356.8205 7.2804 2.8430 339.1388 358.7206 6.9464 309.2844 36.0560 345.2281 21.1363 352.8720 324.7449 81.8155 358.6765 347.1462 21.0957 358.6436 352.7488 61.0800 37.8972 4.8382 340.2762 354.7669 29.5182 280.0524 353.3229 24.4005 0.0884 4.3801 354.2200 357.9861 8.4192 357.3235 1.7266 350.1469 23.3445 2.8012 334.1879 4.5782 1.5168 32.6031 0.6184 356.5452 352.1445 342.1511 
-7.4554 87.3755 75.5587 3.1518 0.5204 176.6891 358.2740 3.0816 356.3657 3.7210 11.1710 355.9539 7.0540 339.6418 3.8462 356.5569 7.2860 2.8083 339.1562 358.7380 6.8484 309.3325 35.9219 345.0954 21.1326 353.0383 324.5171 81.8932 358.6749 347.2961 21.0757 358.6402 352.6696 61.1844 37.7569 4.6378 340.3469 354.7921 29.4883 280.1979 353.4330 24.4473 359.9798 4.4064 354.2727 358.0225 8.4471 357.2842 1.4033 349.7738 23.2383 2.6987 333.8911 4.6426 1.3398 31.2394 0.8478 356.4312 352.6931 342.2715 
-7.3808 87.3211 75.3058 3.1089 0.3571 176.8877 358.2514 3.0962 356.2742 3.8181 11.1783 355.8523 7.1376 339.5504 3.8368 356.5152 7.2111 2.7805 339.1368 358.7260 6.8887 309.7552 36.5897 344.6685 21.4470 352.9701 324.6826 81.8724 358.6244 347.6039 21.0066 358.6126 352.5092 61.3783 37.4623 4.4801 340.4794 354.8503 29.4606 280.2244 353.5692 24.6666 0.0135 4.3238 354.1778 357.9458 8.5729 357.1143 1.4723 349.6213 23.3098 2.6554 333.6100 4.6537 1.0527 29.8817 1.1280 356.7794 353.2272 342.5938 
-7.3394 87.2568 75.0739 2.9602 0.1065 177.0551 358.1962 3.0602 356.2025 3.8452 11.1310 355.7784 7.2180 339.5097 3.8546 356.5161 7.1075 2.7785 339.1470 358.7378 6.8049 309.8719 36.4987 344.5455 21.3028 353.0952 324.4979 81.9077 358.6896 347.5073 20.9650 358.6112 352.4417 61.5757 37.1801 4.2170 340.6338 354.8938 29.4309 280.2187 353.6217 24.8251 359.9030 4.1290 354.2045 357.9582 8.7090 356.9783 1.4031 349.4211 23.2648 2.5155 333.1540 4.7379 0.8667 28.6862 1.4988 357.5630 353.5123 342.7825 
-7.2956 87.1887 74.7650 2.8276 0.0594 177.1407 358.1756 3.1311 356.1770 3.8229 11.1657 355.7521 7.2706 339.4942 3.8807 356.5411 7.0029 2.7908 339.1595 358.7531 6.7447 309.9235 36.3497 344.4670 21.1587 353.1406 324.2448 81.9470 358.8149 347.4029 20.9298 358.5959 352.4261 61.7735 36.9951 3.8908 340.7236 354.9133 29.3137 280.2168 353.4062 24.9133 359.7929 4.2630 354.3195 357.9899 8.7541 356.6775 1.3435 349.1943 23.3639 2.4122 332.9849 4.9261 0.7501 27.4466 1.5536 359.3847 353.5378 340.2264 
-7.2413 87.1193 74.4111 2.7198 0.1294 177.2309 358.1843 3.2796 356.1484 3.7938 11.2246 355.7221 7.3033 339.4901 3.8703 356.5388 6.8852 2.7675 339.1591 358.7608 6.6466 309.9480 36.2801 344.4226 21.0923 353.1057 324.0481 81.8281 358.9473 347.2372 20.9057 358.5987 352.3644 61.9567 36.7842 3.5759 340.8407 354.9844 29.1432 280.1704 353.0996 25.0137 359.7186 4.5847 354.3493 357.9869 8.7112 356.6403 1.5026 349.0261 23.3370 2.3019 333.0238 5.1162 0.6860 26.1159 1.8552 358.6360 353.8139 341.2595 
-7.2070 87.0453 74.1239 2.5268 359.9610 177.3812 358.1555 3.2867 356.1017 3.7477 11.1915 355.6797 7.3702 339.4561 3.8480 356.4902 6.8042 2.7280 339.2046 358.8136 6.3135 309.5507 35.4086 344.8064 20.6178 353.2613 323.4687 81.9156 359.1142 346.5818 20.8889 358.5749 352.2642 62.1268 36.6243 3.2892 340.8669 355.0019 29.1006 280.2681 353.1475 24.9694 359.5526 4.5476 354.3510 358.0167 8.7707 356.7555 1.5298 348.8547 23.1195 2.0835 332.7237 5.2049 0.6435 24.9708 2.0220 357.7700 354.1246 342.4050 
-7.1227 86.9717 73.7685 2.4390 359.9867 177.4923 358.1476 3.3973 356.0910 3.7572 11.2673 355.6638 7.4230 339.4392 3.8606 356.5107 6.6994 2.7281 339.2394 358.8638 6.1944 309.4226 35.0943 344.8021 20.4375 353.2323 323.1962 81.8057 359.1539 346.1268 20.8466 358.5725 352.2003 62.3086 36.4103 3.0133 341.0096 355.0356 29.1052 280.3239 353.5345 25.1393 359.5106 4.7860 354.5068 358.0293 8.7975 356.6040 1.4178 348.6233 23.0039 1.9937 332.7277 5.4899 0.6306 23.8600 1.8670 358.1971 354.0956 342.4609 
-7.0522 86.8944 73.4259 2.2830 359.9015 177.6172 358.1220 3.4340 356.0608 3.7474 11.2782 355.6317 7.4386 339.3729 3.8335 356.4867 6.6867 2.6918 339.2360 358.8694 6.0705 309.3501 34.9462 344.8115 20.3656 353.1756 323.0097 81.7410 359.1933 345.8459 20.8130 358.5527 352.1244 62.5074 36.1827 2.6824 341.0839 355.0628 29.0367 280.3690 353.5557 25.3056 359.4019 4.9053 354.5173 358.0448 8.8074 356.5480 1.1652 348.2740 22.9014 1.8318 332.5644 5.5699 0.6052 22.9258 1.5368 357.7058 353.8128 342.7024 
-6.9722 86.8131 73.0556 2.1376 359.8887 177.7497 358.1088 3.5185 356.0329 3.7194 11.3205 355.6041 7.4792 339.3459 3.8249 356.4643 6.6181 2.6728 339.2157 358.8713 6.1109 309.5199 35.1948 344.5073 20.4011 353.1246 323.1241 81.7850 359.1144 345.8843 20.7845 358.5458 352.0799 62.7068 35.9611 2.3485 341.1968 355.1036 28.9428 280.3859 353.5343 25.4359 359.3279 5.1777 354.4999 358.0170 8.7059 356.4168 0.9335 348.0347 22.8667 1.6534 332.5340 5.8253 0.6456 21.9936 1.2843 357.7821 353.5330 342.3305 
-6.8870 86.7335 72.6741 1.9670 359.8467 177.8857 358.0813 3.5908 356.0099 3.6690 11.2697 355.5852 7.5545 339.4412 3.8079 356.4006 6.4679 2.6453 339.1469 358.8876 6.0094 309.5239 35.1207 344.5368 20.3463 353.1332 323.0668 81.7739 359.1239 345.7842 20.8172 358.5285 352.0582 62.8785 35.7310 1.9312 341.2887 355.1468 28.8893 280.5157 353.6060 25.6123 359.2462 5.3783 354.4357 357.9612 8.7001 356.3474 0.7651 347.7534 22.8738 1.4641 332.4718 6.1145 0.7028 21.1941 1.0985 357.7217 353.1559 342.2517 
-6.7775 86.6532 72.2862 1.8491 359.7495 178.0004 358.0706 3.6079 356.0025 3.6669 11.2272 355.5786 7.5657 339.4986 3.7950 356.4276 6.3637 2.6307 339.0963 358.9078 5.8679 309.3695 34.7674 344.6903 20.1358 353.2029 322.9086 81.8487 359.1585 345.5013 20.8191 358.5256 352.0361 63.0560 35.4871 1.5406 341.4134 355.2039 28.7681 280.6399 353.5209 25.9009 359.2171 5.5440 354.4143 357.9288 8.6763 356.2987 0.7606 347.5760 22.8661 1.3727 332.3618 6.4837 0.7290 20.5185 1.1360 357.6574 352.8195 342.0721 
-6.6541 86.5744 71.8904 1.7457 359.6189 178.0950 358.0398 3.5429 356.0120 3.7158 11.3355 355.5799 7.5462 339.3570 3.7951 356.4768 6.3658 2.6234 339.0890 358.9131 5.9298 309.4615 34.9851 344.4418 20.2247 353.1329 323.0344 81.7468 359.1324 345.5513 20.7511 358.5488 351.9707 63.1953 35.2873 1.3242 341.5744 355.2665 28.6701 280.7670 353.5262 26.1759 359.1995 5.6769 354.4750 357.9345 8.6689 356.2296 0.6685 347.3972 22.7673 1.3313 332.1953 6.7601 0.6973 20.0337 1.1178 357.6723 352.5224 341.8712 
-6.5333 86.4852 71.4437 1.6311 359.6752 178.2216 358.0174 3.6103 356.0146 3.7422 11.5368 355.5712 7.5874 339.1541 3.7765 356.3992 6.3679 2.5828 339.0875 358.9070 6.0707 309.7353 35.6811 344.0107 20.6208 352.9496 323.3236 81.5643 359.1125 345.9727 20.6407 358.5388 351.8649 63.3947 35.1354 1.1392 341.6419 355.2951 28.5932 280.8834 353.5194 26.3685 359.1706 6.0449 354.4829 357.9364 8.6380 356.1466 0.5440 347.1171 22.6801 1.2214 332.2716 6.9817 0.7498 19.5930 0.8411 357.7048 352.2750 341.8141 
-6.4445 86.3986 71.0188 1.4409 359.6703 178.5205 358.0523 3.7811 355.9203 3.6544 11.3662 355.4887 7.6277 339.2813 3.6978 356.3594 6.1968 2.4965 338.9402 358.8655 6.1633 310.2032 36.7646 343.6841 21.2177 352.7615 323.8291 81.3876 358.9304 346.7005 20.6666 358.4968 351.7730 63.6051 34.9049 0.6668 341.7654 355.3334 28.5066 280.9497 353.5133 26.6699 359.0365 6.2502 354.2800 357.9843 8.7696 356.0680 0.0234 346.8232 22.5800 0.9236 332.2388 6.8555 0.7895 19.3402 0.7796 357.7615 351.9367 341.6947 
-6.3209 86.3025 70.5847 1.2950 359.5213 178.6715 358.0479 3.7047 355.9027 3.6407 11.4240 355.4726 7.6675 339.2027 3.7304 356.3431 6.1753 2.5244 338.8890 358.8485 6.2811 310.2986 37.0492 343.5625 21.3971 352.7900 323.9956 81.3893 358.8289 346.8915 20.6122 358.5147 351.8181 63.8032 34.6442 0.2997 342.0035 355.4036 28.4761 280.9081 353.5800 27.2057 358.9746 6.3723 354.1218 357.9837 8.7912 356.1328 0.0066 346.5822 22.4321 0.8013 332.0151 6.6798 0.7467 19.4236 0.8581 358.0786 351.7682 341.6486 
-6.1767 86.2082 70.1419 1.1692 359.4092 178.8147 358.0334 3.7106 355.9068 3.6663 11.4119 355.4735 7.6142 339.1259 3.6949 356.4235 6.1430 2.4852 338.8260 358.8329 6.3723 310.4239 37.5358 343.4684 21.7120 352.7272 324.1931 81.3516 358.7302 347.2045 20.5633 358.5295 351.7729 63.9737 34.4562 359.9922 342.1355 355.4529 28.4137 281.0272 353.6353 27.5030 359.0122 6.5652 353.6549 357.8275 8.7570 356.3373 359.9892 346.3233 22.4986 0.7160 331.8293 6.6699 0.7878 19.6999 0.5240 358.7005 351.8021 341.7938 
-6.0200 86.1100 69.6756 1.0660 359.3551 178.9447 358.0272 3.7246 355.9358 3.6983 11.5459 355.4944 7.6171 338.8799 3.6682 356.4335 6.1508 2.4380 338.8589 358.8305 6.4645 310.5255 37.9108 343.2697 21.9119 352.7141 324.3273 81.3294 358.7177 347.4426 20.4598 358.5160 351.6391 64.1498 34.3345 359.8137 342.2370 355.4786 28.3850 281.0798 353.7124 27.7611 359.0135 6.7755 353.6358 357.8300 8.8506 356.2568 359.9052 345.9883 22.3986 0.6537 331.7087 6.7258 0.8779 20.1332 0.3477 359.1813 352.2220 341.7388 
-5.8580 86.0113 69.2223 0.9586 359.2385 179.1109 358.0277 3.6995 355.9256 3.7402 11.6066 355.4779 7.6127 338.7454 3.6393 356.4275 6.0983 2.3993 338.8522 358.8158 6.4387 310.4576 37.9772 343.3362 21.9415 352.7567 324.3234 81.3679 358.7669 347.4825 20.3808 358.5013 351.5700 64.3358 34.1785 359.5386 342.3618 355.5226 28.3203 281.1412 353.7484 27.9792 359.0197 6.8715 353.5130 357.8075 9.0215 356.2022 359.8941 345.6330 22.3697 0.5736 331.4678 6.6219 0.9574 20.7356 0.2666 359.7775 352.6896 341.7999 
-5.6868 85.9187 68.7438 0.8830 359.1672 179.2722 358.1981 3.6396 355.8329 3.5703 11.7272 355.4045 7.6425 338.7155 3.6448 356.4466 5.9365 2.3925 338.8947 358.8267 6.3278 310.1630 37.5042 343.6856 21.6000 352.9351 324.1189 81.5512 358.8388 347.0878 20.4299 358.5070 351.6420 64.4879 33.9447 359.2029 342.5236 355.5873 28.2433 281.1794 353.7286 28.2229 359.0579 7.0449 353.3551 357.7741 9.1663 356.1799 359.8868 345.2605 22.3600 0.5227 331.2951 6.5826 1.0438 21.4215 0.1927 0.0145 353.1909 341.9340 
-5.5080 85.8238 68.2575 0.8147 359.0945 179.4429 358.2509 3.6086 355.8122 3.5781 11.8561 355.3812 7.6856 338.5945 3.6837 356.4238 5.8224 2.4141 338.9492 358.8536 5.9446 309.2656 35.6207 344.6100 20.4263 353.4454 323.2378 81.9419 359.0565 345.7135 20.3682 358.5195 351.7423 64.7002 33.7365 358.8851 342.5707 355.5975 28.2765 281.2963 353.8280 28.3691 359.0992 7.1944 353.3165 357.7848 9.3733 355.9957 359.8032 344.8520 22.3702 0.4798 331.1068 6.4450 1.1328 22.2202 0.1652 359.6762 353.3146 342.4111 
-5.3141 85.7332 67.7704 0.7689 359.0211 179.6120 358.2939 3.6515 355.8442 3.6518 11.8826 355.4050 7.6643 338.4165 3.6251 356.4044 5.8009 2.3381 338.9167 358.8968 5.8184 309.0277 35.2020 344.9149 19.8943 353.5368 322.9995 82.3851 359.1167 345.0279 20.3276 358.5095 351.6924 64.8493 33.5907 358.6115 342.6508 355.6141 28.2490 281.3108 353.7957 28.5376 359.1751 7.3119 353.3202 357.7930 9.6261 355.8255 359.7262 344.4444 22.3430 0.4977 330.8944 6.1906 1.1146 23.0360 0.6224 359.0510 353.5172 342.2099 
-5.1115 85.6552 67.2686 0.7599 358.9541 179.7899 358.4079 3.6734 355.8501 3.6893 11.9414 355.4082 7.6598 338.2639 3.5803 356.3661 5.7145 2.2822 338.8877 358.9275 5.7299 308.8562 34.9949 345.1477 19.6978 353.4670 322.8219 82.1267 359.2165 344.4060 20.3071 358.4898 351.6325 65.0099 33.4699 358.3516 342.6730 355.6384 28.1959 281.3216 353.7291 28.6186 359.2911 7.4407 353.2089 357.7844 9.8800 355.7817 359.6381 344.0349 22.3041 0.5753 330.6585 5.8344 1.0437 23.9684 1.1654 359.0046 353.6831 341.9257 
-4.9021 85.5840 66.7786 0.7830 358.8757 179.9650 358.5946 3.7179 355.8201 3.6759 11.9683 355.3841 7.5389 338.1819 3.5146 356.5400 5.5146 2.2217 338.8716 358.9412 5.7063 308.7084 34.8657 345.3463 19.6291 353.3889 322.7425 81.7717 359.2266 343.9221 20.3139 358.4967 351.6437 65.1513 33.3051 358.1021 342.7380 355.6610 28.1297 281.3186 353.6863 28.7247 359.4219 7.5107 353.0605 357.8054 10.2136 355.7109 359.3858 343.4341 22.3410 0.7108 330.3801 5.4854 0.9721 24.8873 1.6504 358.8295 353.9875 341.6014 
